<svg id="Layer_1" data-name="Layer 1" xmlns="http://www.w3.org/2000/svg" width="256" height="339.7" viewBox="0 0 256 339.7"><title>sloth-bg</title><path d="M89,50.3a13.6,13.6,0,1,1-27.1,0,13.6,13.6,0,0,1,27.1,0Zm40.3-4.6c-.1.2-.2.3-.2.5S105.8,83.7,75.4,83.7s-52.7-36-53.6-37.5-.2-.3-.2-.5a24.5,24.5,0,0,1,.3-18.3c3.6-8.7,11.7-15.7,24.2-20.7C54.5,3.3,62.5.5,75.3,0h.3c12.8.5,20.7,3.3,29.1,6.7,12.5,5,20.7,12,24.3,20.7A25,25,0,0,1,129.3,45.7Zm-14.2,6.8-8.4-4.4a10.1,10.1,0,0,1-4.3,1,9.9,9.9,0,0,1,0-19.7,9.7,9.7,0,0,1,9.8,9l9.7,5.1.7-1A17.7,17.7,0,0,0,122,30c-2.8-6.7-9.5-12.2-20.1-16.4C94.3,10.5,87,7.9,75.4,7.4s-18.5,3-26.5,6.2C38.4,17.8,31.6,23.3,28.8,30a18.1,18.1,0,0,0-.5,12.5l.7,1,9.7-5.1a9.7,9.7,0,0,1,9.7-9,9.9,9.9,0,1,1,0,19.7,10.4,10.4,0,0,1-4.3-1l-8.3,4.4c8.3,10,22.9,23.7,39.6,23.7S106.7,62.5,115.1,52.5Z" fill="#d8c2ab"/><path d="M89,306.3a13.6,13.6,0,1,1-27.1,0,13.6,13.6,0,0,1,27.1,0Zm40.3-4.6c-.1.2-.2.3-.2.5s-23.3,37.5-53.7,37.5-52.7-36-53.6-37.5-.2-.3-.2-.5a24.5,24.5,0,0,1,.3-18.3c3.6-8.7,11.7-15.7,24.2-20.7,8.4-3.4,16.4-6.2,29.2-6.7h.3c12.8.5,20.7,3.3,29.1,6.7,12.5,5,20.7,12,24.3,20.7A25,25,0,0,1,129.3,301.7Zm-14.2,6.8-8.4-4.4a10.1,10.1,0,0,1-4.3,1,9.9,9.9,0,0,1,0-19.7,9.7,9.7,0,0,1,9.8,9l9.7,5.1.7-1A17.7,17.7,0,0,0,122,286c-2.8-6.7-9.5-12.2-20.1-16.4-7.6-3.1-14.9-5.7-26.5-6.2s-18.5,3-26.5,6.2c-10.5,4.2-17.3,9.7-20.1,16.4a18.1,18.1,0,0,0-.5,12.5l.7,1,9.7-5.1a9.7,9.7,0,0,1,9.7-9,9.9,9.9,0,1,1,0,19.7,10.4,10.4,0,0,1-4.3-1l-8.3,4.4c8.3,10,22.9,23.7,39.6,23.7S106.7,318.5,115.1,308.5Z" fill="#d8c2ab"/><path d="M194.1,178.3a13.6,13.6,0,1,1-13.5-13.5A13.5,13.5,0,0,1,194.1,178.3Zm40.3-4.6c0,.2-.1.3-.2.5s-23.2,37.5-53.6,37.5-52.7-36-53.7-37.5-.1-.3-.2-.5a25,25,0,0,1,.3-18.3c3.6-8.7,11.8-15.7,24.3-20.7,8.4-3.4,16.3-6.2,29.1-6.7h.3c12.8.5,20.8,3.3,29.1,6.7,12.6,5,20.7,12,24.3,20.7A24.5,24.5,0,0,1,234.4,173.7Zm-14.2,6.8-8.3-4.4a10.4,10.4,0,0,1-4.3,1,9.9,9.9,0,1,1,0-19.7,9.7,9.7,0,0,1,9.7,9l9.7,5.1.7-1a18,18,0,0,0-.5-12.5c-2.8-6.7-9.6-12.2-20.1-16.4-7.7-3.1-15-5.7-26.5-6.2s-18.6,3-26.5,6.2c-10.6,4.2-17.3,9.7-20.1,16.4a17.7,17.7,0,0,0-.6,12.5l.7,1,9.7-5.1a9.8,9.8,0,0,1,19.6.8,9.8,9.8,0,0,1-9.8,9.9,10.1,10.1,0,0,1-4.3-1l-8.4,4.4c8.4,10,22.9,23.7,39.7,23.7S211.9,190.5,220.2,180.5Z" fill="#d8c2ab"/></svg>